<svg width="1438" height="89" viewBox="0 0 1438 89" fill="none" xmlns="http://www.w3.org/2000/svg">
<mask id="path-1-outside-1_2_96" maskUnits="userSpaceOnUse" x="-1" y="-2" width="1442" height="99" fill="black">
<rect fill="white" x="-1" y="-2" width="1442" height="99"/>
<path d="M56.05 1.99999V22.02H21.6V39.57H55.4V59.59H21.6V93H0.8V1.99999H56.05ZM138.539 93H116.179L99.0191 63.1H89.1391V93H68.3391V1.99999H104.739C113.406 1.99999 120.772 5.03333 126.839 11.1C132.906 17.1667 135.939 24.5333 135.939 33.2C135.939 38.66 134.379 43.7733 131.259 48.54C128.226 53.3067 124.196 56.99 119.169 59.59L138.539 93ZM104.739 21.5H89.1391V44.9H104.739C107.599 44.9 110.026 43.7733 112.019 41.52C114.099 39.2667 115.139 36.4933 115.139 33.2C115.139 29.9067 114.099 27.1333 112.019 24.88C110.026 22.6267 107.599 21.5 104.739 21.5ZM224.01 81.17C214.823 90.27 203.643 94.82 190.47 94.82C177.297 94.82 166.117 90.27 156.93 81.17C147.743 72.07 143.15 60.8467 143.15 47.5C143.15 34.1533 147.743 22.93 156.93 13.83C166.117 4.72999 177.297 0.179994 190.47 0.179994C203.643 0.179994 214.823 4.72999 224.01 13.83C233.197 22.93 237.79 34.1533 237.79 47.5C237.79 60.8467 233.197 72.07 224.01 81.17ZM163.95 47.5C163.95 55.4733 166.463 61.9733 171.49 67C176.517 72.0267 182.843 74.54 190.47 74.54C198.01 74.54 204.293 72.0267 209.32 67C214.433 61.8867 216.99 55.3867 216.99 47.5C216.99 39.6133 214.433 33.1133 209.32 28C204.293 22.9733 198.01 20.46 190.47 20.46C182.843 20.46 176.517 22.9733 171.49 28C166.463 33.0267 163.95 39.5267 163.95 47.5ZM300.201 51.4V1.99999H321.001V93H305.401L270.301 43.6V93H249.501V1.99999H265.101L300.201 51.4ZM330.091 1.99999H397.691V22.02H374.291V93H353.491V22.02H330.091V1.99999ZM449.721 63.49H400.321V44.77H449.721V63.49ZM486.121 56.86V72.98H522.521V93H465.321V1.99999H521.871V22.02H486.121V37.1H518.621V56.86H486.121ZM584.957 51.4V1.99999H605.757V93H590.157L555.057 43.6V93H534.257V1.99999H549.857L584.957 51.4ZM621.347 1.99999H657.747C670.227 1.99999 680.714 6.37666 689.207 15.13C697.7 23.8833 701.947 34.6733 701.947 47.5C701.947 60.4133 697.7 71.2467 689.207 80C680.8 88.6667 670.314 93 657.747 93H621.347V1.99999ZM642.147 72.98H657.747C664.94 72.98 670.747 70.6833 675.167 66.09C679.674 61.4967 681.927 55.3 681.927 47.5C681.927 39.7 679.674 33.5467 675.167 29.04C670.747 24.36 664.94 22.02 657.747 22.02H642.147V72.98ZM746.142 1.99999H782.542C795.022 1.99999 805.508 6.37666 814.002 15.13C822.495 23.8833 826.742 34.6733 826.742 47.5C826.742 60.4133 822.495 71.2467 814.002 80C805.595 88.6667 795.108 93 782.542 93H746.142V1.99999ZM766.942 72.98H782.542C789.735 72.98 795.542 70.6833 799.962 66.09C804.468 61.4967 806.722 55.3 806.722 47.5C806.722 39.7 804.468 33.5467 799.962 29.04C795.542 24.36 789.735 22.02 782.542 22.02H766.942V72.98ZM859.237 56.86V72.98H895.637V93H838.437V1.99999H894.987V22.02H859.237V37.1H891.737V56.86H859.237ZM955.732 93H929.212L899.572 1.99999H922.322L942.472 68.95L962.622 1.99999H985.372L955.732 93ZM1013.99 56.86V72.98H1050.39V93H993.193V1.99999H1049.74V22.02H1013.99V37.1H1046.49V56.86H1013.99ZM1082.93 1.99999V72.98H1115.43V93H1062.13V1.99999H1082.93ZM1196.34 81.17C1187.16 90.27 1175.98 94.82 1162.8 94.82C1149.63 94.82 1138.45 90.27 1129.26 81.17C1120.08 72.07 1115.48 60.8467 1115.48 47.5C1115.48 34.1533 1120.08 22.93 1129.26 13.83C1138.45 4.72999 1149.63 0.179994 1162.8 0.179994C1175.98 0.179994 1187.16 4.72999 1196.34 13.83C1205.53 22.93 1210.12 34.1533 1210.12 47.5C1210.12 60.8467 1205.53 72.07 1196.34 81.17ZM1136.28 47.5C1136.28 55.4733 1138.8 61.9733 1143.82 67C1148.85 72.0267 1155.18 74.54 1162.8 74.54C1170.34 74.54 1176.63 72.0267 1181.65 67C1186.77 61.8867 1189.32 55.3867 1189.32 47.5C1189.32 39.6133 1186.77 33.1133 1181.65 28C1176.63 22.9733 1170.34 20.46 1162.8 20.46C1155.18 20.46 1148.85 22.9733 1143.82 28C1138.8 33.0267 1136.28 39.5267 1136.28 47.5ZM1221.84 1.99999H1256.29C1265.3 1.99999 1272.84 5.03333 1278.91 11.1C1285.06 17.2533 1288.14 24.62 1288.14 33.2C1288.14 41.78 1285.06 49.1467 1278.91 55.3C1272.84 61.3667 1265.3 64.4 1256.29 64.4H1242.64V93H1221.84V1.99999ZM1242.64 44.9H1256.29C1259.49 44.9 1262.14 43.7733 1264.22 41.52C1266.3 39.2667 1267.34 36.4933 1267.34 33.2C1267.34 29.9067 1266.3 27.1333 1264.22 24.88C1262.14 22.6267 1259.49 21.5 1256.29 21.5H1242.64V44.9ZM1319.31 56.86V72.98H1355.71V93H1298.51V1.99999H1355.06V22.02H1319.31V37.1H1351.81V56.86H1319.31ZM1437.65 93H1415.29L1398.13 63.1H1388.25V93H1367.45V1.99999H1403.85C1412.52 1.99999 1419.88 5.03333 1425.95 11.1C1432.02 17.1667 1435.05 24.5333 1435.05 33.2C1435.05 38.66 1433.49 43.7733 1430.37 48.54C1427.34 53.3067 1423.31 56.99 1418.28 59.59L1437.65 93ZM1403.85 21.5H1388.25V44.9H1403.85C1406.71 44.9 1409.14 43.7733 1411.13 41.52C1413.21 39.2667 1414.25 36.4933 1414.25 33.2C1414.25 29.9067 1413.21 27.1333 1411.13 24.88C1409.14 22.6267 1406.71 21.5 1403.85 21.5Z"/>
</mask>
<path d="M56.05 1.99999H57.6474V0.402552H56.05V1.99999ZM56.05 22.02V23.6174H57.6474V22.02H56.05ZM21.6 22.02V20.4226H20.0026V22.02H21.6ZM21.6 39.57H20.0026V41.1674H21.6V39.57ZM55.4 39.57H56.9974V37.9726H55.4V39.57ZM55.4 59.59V61.1874H56.9974V59.59H55.4ZM21.6 59.59V57.9926H20.0026V59.59H21.6ZM21.6 93V94.5974H23.1974V93H21.6ZM0.8 93H-0.797442V94.5974H0.8V93ZM0.8 1.99999V0.402552H-0.797442V1.99999H0.8ZM54.4526 1.99999V22.02H57.6474V1.99999H54.4526ZM56.05 20.4226H21.6V23.6174H56.05V20.4226ZM20.0026 22.02V39.57H23.1974V22.02H20.0026ZM21.6 41.1674H55.4V37.9726H21.6V41.1674ZM53.8026 39.57V59.59H56.9974V39.57H53.8026ZM55.4 57.9926H21.6V61.1874H55.4V57.9926ZM20.0026 59.59V93H23.1974V59.59H20.0026ZM21.6 91.4026H0.8V94.5974H21.6V91.4026ZM2.39744 93V1.99999H-0.797442V93H2.39744ZM0.8 3.59744H56.05V0.402552H0.8V3.59744ZM138.539 93V94.5974H141.312L139.921 92.1988L138.539 93ZM116.179 93L114.794 93.7952L115.254 94.5974H116.179V93ZM99.0191 63.1L100.405 62.3049L99.9441 61.5026H99.0191V63.1ZM89.1391 63.1V61.5026H87.5416V63.1H89.1391ZM89.1391 93V94.5974H90.7365V93H89.1391ZM68.3391 93H66.7416V94.5974H68.3391V93ZM68.3391 1.99999V0.402552H66.7416V1.99999H68.3391ZM126.839 11.1L127.969 9.97043V9.97043L126.839 11.1ZM131.259 48.54L129.922 47.6651L129.917 47.6737L129.911 47.6824L131.259 48.54ZM119.169 59.59L118.435 58.1711L116.946 58.9412L117.787 60.3912L119.169 59.59ZM89.1391 21.5V19.9026H87.5416V21.5H89.1391ZM89.1391 44.9H87.5416V46.4974H89.1391V44.9ZM112.019 41.52L110.845 40.4365L110.834 40.4489L110.823 40.4616L112.019 41.52ZM112.019 24.88L110.823 25.9384L110.834 25.9511L110.845 25.9635L112.019 24.88ZM138.539 91.4026H116.179V94.5974H138.539V91.4026ZM117.565 92.2048L100.405 62.3049L97.6336 63.8951L114.794 93.7952L117.565 92.2048ZM99.0191 61.5026H89.1391V64.6974H99.0191V61.5026ZM87.5416 63.1V93H90.7365V63.1H87.5416ZM89.1391 91.4026H68.3391V94.5974H89.1391V91.4026ZM69.9365 93V1.99999H66.7416V93H69.9365ZM68.3391 3.59744H104.739V0.402552H68.3391V3.59744ZM104.739 3.59744C112.987 3.59744 119.946 6.46587 125.71 12.2296L127.969 9.97043C121.599 3.60078 113.825 0.402552 104.739 0.402552V3.59744ZM125.71 12.2296C131.473 17.9932 134.342 24.9522 134.342 33.2H137.537C137.537 24.1145 134.338 16.3401 127.969 9.97043L125.71 12.2296ZM134.342 33.2C134.342 38.3353 132.88 43.1466 129.922 47.6651L132.596 49.4149C135.878 44.4001 137.537 38.9847 137.537 33.2H134.342ZM129.911 47.6824C127.03 52.2106 123.212 55.7005 118.435 58.1711L119.903 61.0089C125.18 58.2795 129.422 54.4027 132.607 49.3976L129.911 47.6824ZM117.787 60.3912L137.157 93.8012L139.921 92.1988L120.551 58.7888L117.787 60.3912ZM104.739 19.9026H89.1391V23.0974H104.739V19.9026ZM87.5416 21.5V44.9H90.7365V21.5H87.5416ZM89.1391 46.4974H104.739V43.3026H89.1391V46.4974ZM104.739 46.4974C108.083 46.4974 110.937 45.1543 113.216 42.5784L110.823 40.4616C109.115 42.3923 107.115 43.3026 104.739 43.3026V46.4974ZM113.193 42.6035C115.566 40.0321 116.737 36.8625 116.737 33.2H113.542C113.542 36.1242 112.632 38.5012 110.845 40.4365L113.193 42.6035ZM116.737 33.2C116.737 29.5375 115.566 26.3679 113.193 23.7965L110.845 25.9635C112.632 27.8988 113.542 30.2758 113.542 33.2H116.737ZM113.216 23.8216C110.937 21.2457 108.083 19.9026 104.739 19.9026V23.0974C107.115 23.0974 109.115 24.0077 110.823 25.9384L113.216 23.8216ZM224.01 81.17L222.886 80.0351L224.01 81.17ZM156.93 81.17L158.054 80.0351L156.93 81.17ZM171.49 67L170.36 68.1296L171.49 67ZM209.32 67L208.19 65.8704L209.32 67ZM209.32 28L208.19 29.1296L209.32 28ZM171.49 28L172.62 29.1296L171.49 28ZM222.886 80.0351C214.005 88.8326 203.231 93.2226 190.47 93.2226V96.4174C204.056 96.4174 215.642 91.7074 225.134 82.3049L222.886 80.0351ZM190.47 93.2226C177.709 93.2226 166.936 88.8326 158.054 80.0351L155.806 82.3049C165.298 91.7074 176.884 96.4174 190.47 96.4174V93.2226ZM158.054 80.0351C149.181 71.2457 144.747 60.4357 144.747 47.5H141.553C141.553 61.2576 146.306 72.8943 155.806 82.3049L158.054 80.0351ZM144.747 47.5C144.747 34.5643 149.181 23.7543 158.054 14.9649L155.806 12.6951C146.306 22.1057 141.553 33.7424 141.553 47.5H144.747ZM158.054 14.9649C166.936 6.16738 177.709 1.77744 190.47 1.77744V-1.41745C176.884 -1.41745 165.298 3.29261 155.806 12.6951L158.054 14.9649ZM190.47 1.77744C203.231 1.77744 214.005 6.16738 222.886 14.9649L225.134 12.6951C215.642 3.29261 204.056 -1.41745 190.47 -1.41745V1.77744ZM222.886 14.9649C231.759 23.7543 236.193 34.5643 236.193 47.5H239.387C239.387 33.7424 234.634 22.1057 225.134 12.6951L222.886 14.9649ZM236.193 47.5C236.193 60.4357 231.759 71.2457 222.886 80.0351L225.134 82.3049C234.634 72.8943 239.387 61.2576 239.387 47.5H236.193ZM162.353 47.5C162.353 55.8407 164.997 62.7657 170.36 68.1296L172.62 65.8704C167.93 61.1809 165.547 55.106 165.547 47.5H162.353ZM170.36 68.1296C175.71 73.4791 182.454 76.1374 190.47 76.1374V72.9426C183.233 72.9426 177.323 70.5742 172.62 65.8704L170.36 68.1296ZM190.47 76.1374C198.405 76.1374 205.104 73.4754 210.45 68.1296L208.19 65.8704C203.483 70.5779 197.615 72.9426 190.47 72.9426V76.1374ZM210.45 68.1296C215.891 62.688 218.587 55.7681 218.587 47.5H215.393C215.393 55.0053 212.976 61.0853 208.19 65.8704L210.45 68.1296ZM218.587 47.5C218.587 39.2319 215.891 32.312 210.45 26.8704L208.19 29.1296C212.976 33.9147 215.393 39.9947 215.393 47.5H218.587ZM210.45 26.8704C205.104 21.5246 198.405 18.8626 190.47 18.8626V22.0574C197.615 22.0574 203.483 24.4221 208.19 29.1296L210.45 26.8704ZM190.47 18.8626C182.454 18.8626 175.71 21.5209 170.36 26.8704L172.62 29.1296C177.323 24.4258 183.233 22.0574 190.47 22.0574V18.8626ZM170.36 26.8704C164.997 32.2343 162.353 39.1593 162.353 47.5H165.547C165.547 39.894 167.93 33.8191 172.62 29.1296L170.36 26.8704ZM300.201 51.4L298.899 52.3252L301.799 56.4062V51.4H300.201ZM300.201 1.99999V0.402552H298.604V1.99999H300.201ZM321.001 1.99999H322.599V0.402552H321.001V1.99999ZM321.001 93V94.5974H322.599V93H321.001ZM305.401 93L304.099 93.9252L304.577 94.5974H305.401V93ZM270.301 43.6L271.603 42.6747L268.704 38.5938V43.6H270.301ZM270.301 93V94.5974H271.899V93H270.301ZM249.501 93H247.904V94.5974H249.501V93ZM249.501 1.99999V0.402552H247.904V1.99999H249.501ZM265.101 1.99999L266.403 1.07474L265.926 0.402552H265.101V1.99999ZM301.799 51.4V1.99999H298.604V51.4H301.799ZM300.201 3.59744H321.001V0.402552H300.201V3.59744ZM319.404 1.99999V93H322.599V1.99999H319.404ZM321.001 91.4026H305.401V94.5974H321.001V91.4026ZM306.703 92.0748L271.603 42.6747L268.999 44.5252L304.099 93.9252L306.703 92.0748ZM268.704 43.6V93H271.899V43.6H268.704ZM270.301 91.4026H249.501V94.5974H270.301V91.4026ZM251.099 93V1.99999H247.904V93H251.099ZM249.501 3.59744H265.101V0.402552H249.501V3.59744ZM263.799 2.92524L298.899 52.3252L301.503 50.4747L266.403 1.07474L263.799 2.92524ZM330.091 1.99999V0.402552H328.494V1.99999H330.091ZM397.691 1.99999H399.288V0.402552H397.691V1.99999ZM397.691 22.02V23.6174H399.288V22.02H397.691ZM374.291 22.02V20.4226H372.694V22.02H374.291ZM374.291 93V94.5974H375.888V93H374.291ZM353.491 93H351.894V94.5974H353.491V93ZM353.491 22.02H355.088V20.4226H353.491V22.02ZM330.091 22.02H328.494V23.6174H330.091V22.02ZM330.091 3.59744H397.691V0.402552H330.091V3.59744ZM396.094 1.99999V22.02H399.288V1.99999H396.094ZM397.691 20.4226H374.291V23.6174H397.691V20.4226ZM372.694 22.02V93H375.888V22.02H372.694ZM374.291 91.4026H353.491V94.5974H374.291V91.4026ZM355.088 93V22.02H351.894V93H355.088ZM353.491 20.4226H330.091V23.6174H353.491V20.4226ZM331.688 22.02V1.99999H328.494V22.02H331.688ZM449.721 63.49V65.0874H451.319V63.49H449.721ZM400.321 63.49H398.724V65.0874H400.321V63.49ZM400.321 44.77V43.1726H398.724V44.77H400.321ZM449.721 44.77H451.319V43.1726H449.721V44.77ZM449.721 61.8926H400.321V65.0874H449.721V61.8926ZM401.919 63.49V44.77H398.724V63.49H401.919ZM400.321 46.3674H449.721V43.1726H400.321V46.3674ZM448.124 44.77V63.49H451.319V44.77H448.124ZM486.121 56.86V55.2626H484.524V56.86H486.121ZM486.121 72.98H484.524V74.5774H486.121V72.98ZM522.521 72.98H524.119V71.3826H522.521V72.98ZM522.521 93V94.5974H524.119V93H522.521ZM465.321 93H463.724V94.5974H465.321V93ZM465.321 1.99999V0.402552H463.724V1.99999H465.321ZM521.871 1.99999H523.469V0.402552H521.871V1.99999ZM521.871 22.02V23.6174H523.469V22.02H521.871ZM486.121 22.02V20.4226H484.524V22.02H486.121ZM486.121 37.1H484.524V38.6974H486.121V37.1ZM518.621 37.1H520.219V35.5026H518.621V37.1ZM518.621 56.86V58.4574H520.219V56.86H518.621ZM484.524 56.86V72.98H487.719V56.86H484.524ZM486.121 74.5774H522.521V71.3826H486.121V74.5774ZM520.924 72.98V93H524.119V72.98H520.924ZM522.521 91.4026H465.321V94.5974H522.521V91.4026ZM466.919 93V1.99999H463.724V93H466.919ZM465.321 3.59744H521.871V0.402552H465.321V3.59744ZM520.274 1.99999V22.02H523.469V1.99999H520.274ZM521.871 20.4226H486.121V23.6174H521.871V20.4226ZM484.524 22.02V37.1H487.719V22.02H484.524ZM486.121 38.6974H518.621V35.5026H486.121V38.6974ZM517.024 37.1V56.86H520.219V37.1H517.024ZM518.621 55.2626H486.121V58.4574H518.621V55.2626ZM584.957 51.4L583.655 52.3252L586.555 56.4062V51.4H584.957ZM584.957 1.99999V0.402552H583.36V1.99999H584.957ZM605.757 1.99999H607.354V0.402552H605.757V1.99999ZM605.757 93V94.5974H607.354V93H605.757ZM590.157 93L588.855 93.9252L589.332 94.5974H590.157V93ZM555.057 43.6L556.359 42.6747L553.46 38.5938V43.6H555.057ZM555.057 93V94.5974H556.654V93H555.057ZM534.257 93H532.66V94.5974H534.257V93ZM534.257 1.99999V0.402552H532.66V1.99999H534.257ZM549.857 1.99999L551.159 1.07474L550.682 0.402552H549.857V1.99999ZM586.555 51.4V1.99999H583.36V51.4H586.555ZM584.957 3.59744H605.757V0.402552H584.957V3.59744ZM604.16 1.99999V93H607.354V1.99999H604.16ZM605.757 91.4026H590.157V94.5974H605.757V91.4026ZM591.459 92.0748L556.359 42.6747L553.755 44.5252L588.855 93.9252L591.459 92.0748ZM553.46 43.6V93H556.654V43.6H553.46ZM555.057 91.4026H534.257V94.5974H555.057V91.4026ZM535.854 93V1.99999H532.66V93H535.854ZM534.257 3.59744H549.857V0.402552H534.257V3.59744ZM548.555 2.92524L583.655 52.3252L586.259 50.4747L551.159 1.07474L548.555 2.92524ZM621.347 1.99999V0.402552H619.749V1.99999H621.347ZM689.207 80L688.06 78.8876L688.06 78.8878L689.207 80ZM621.347 93H619.749V94.5974H621.347V93ZM642.147 72.98H640.549V74.5774H642.147V72.98ZM675.167 66.09L674.027 64.9712L674.021 64.9768L674.016 64.9824L675.167 66.09ZM675.167 29.04L674.005 30.1368L674.021 30.1534L674.037 30.1696L675.167 29.04ZM642.147 22.02V20.4226H640.549V22.02H642.147ZM621.347 3.59744H657.747V0.402552H621.347V3.59744ZM657.747 3.59744C669.806 3.59744 679.876 7.80714 688.06 16.2424L690.353 14.0176C681.551 4.94618 670.648 0.402552 657.747 0.402552V3.59744ZM688.06 16.2424C696.248 24.681 700.349 35.0649 700.349 47.5H703.544C703.544 34.2818 699.152 23.0856 690.353 14.0176L688.06 16.2424ZM700.349 47.5C700.349 60.025 696.246 70.4511 688.06 78.8876L690.353 81.1124C699.154 72.0422 703.544 60.8017 703.544 47.5H700.349ZM688.06 78.8878C679.968 87.2304 669.901 91.4026 657.747 91.4026V94.5974C670.726 94.5974 681.633 90.103 690.354 81.1122L688.06 78.8878ZM657.747 91.4026H621.347V94.5974H657.747V91.4026ZM622.944 93V1.99999H619.749V93H622.944ZM642.147 74.5774H657.747V71.3826H642.147V74.5774ZM657.747 74.5774C665.313 74.5774 671.557 72.1455 676.318 67.1976L674.016 64.9824C669.937 69.2212 664.567 71.3826 657.747 71.3826V74.5774ZM676.307 67.2087C681.167 62.2555 683.524 55.624 683.524 47.5H680.329C680.329 54.976 678.18 60.7378 674.027 64.9712L676.307 67.2087ZM683.524 47.5C683.524 39.3772 681.167 32.7812 676.296 27.9104L674.037 30.1696C678.18 34.3122 680.329 40.0228 680.329 47.5H683.524ZM676.328 27.9432C671.569 22.9044 665.323 20.4226 657.747 20.4226V23.6174C664.558 23.6174 669.924 25.8156 674.005 30.1368L676.328 27.9432ZM657.747 20.4226H642.147V23.6174H657.747V20.4226ZM640.549 22.02V72.98H643.744V22.02H640.549ZM746.142 1.99999V0.402552H744.544V1.99999H746.142ZM814.002 80L812.855 78.8876L812.855 78.8878L814.002 80ZM746.142 93H744.544V94.5974H746.142V93ZM766.942 72.98H765.344V74.5774H766.942V72.98ZM799.962 66.09L798.822 64.9712L798.816 64.9768L798.811 64.9824L799.962 66.09ZM799.962 29.04L798.8 30.1368L798.816 30.1534L798.832 30.1696L799.962 29.04ZM766.942 22.02V20.4226H765.344V22.02H766.942ZM746.142 3.59744H782.542V0.402552H746.142V3.59744ZM782.542 3.59744C794.601 3.59744 804.671 7.80714 812.855 16.2424L815.148 14.0176C806.346 4.94618 795.443 0.402552 782.542 0.402552V3.59744ZM812.855 16.2424C821.043 24.681 825.144 35.0649 825.144 47.5H828.339C828.339 34.2818 823.947 23.0856 815.148 14.0176L812.855 16.2424ZM825.144 47.5C825.144 60.025 821.041 70.4511 812.855 78.8876L815.148 81.1124C823.949 72.0422 828.339 60.8017 828.339 47.5H825.144ZM812.855 78.8878C804.763 87.2304 794.696 91.4026 782.542 91.4026V94.5974C795.521 94.5974 806.427 90.103 815.148 81.1122L812.855 78.8878ZM782.542 91.4026H746.142V94.5974H782.542V91.4026ZM747.739 93V1.99999H744.544V93H747.739ZM766.942 74.5774H782.542V71.3826H766.942V74.5774ZM782.542 74.5774C790.108 74.5774 796.352 72.1455 801.113 67.1976L798.811 64.9824C794.732 69.2212 789.362 71.3826 782.542 71.3826V74.5774ZM801.102 67.2087C805.962 62.2555 808.319 55.624 808.319 47.5H805.124C805.124 54.976 802.975 60.7378 798.822 64.9712L801.102 67.2087ZM808.319 47.5C808.319 39.3772 805.962 32.7812 801.091 27.9104L798.832 30.1696C802.975 34.3122 805.124 40.0228 805.124 47.5H808.319ZM801.123 27.9432C796.364 22.9044 790.118 20.4226 782.542 20.4226V23.6174C789.353 23.6174 794.719 25.8156 798.8 30.1368L801.123 27.9432ZM782.542 20.4226H766.942V23.6174H782.542V20.4226ZM765.344 22.02V72.98H768.539V22.02H765.344ZM859.237 56.86V55.2626H857.639V56.86H859.237ZM859.237 72.98H857.639V74.5774H859.237V72.98ZM895.637 72.98H897.234V71.3826H895.637V72.98ZM895.637 93V94.5974H897.234V93H895.637ZM838.437 93H836.839V94.5974H838.437V93ZM838.437 1.99999V0.402552H836.839V1.99999H838.437ZM894.987 1.99999H896.584V0.402552H894.987V1.99999ZM894.987 22.02V23.6174H896.584V22.02H894.987ZM859.237 22.02V20.4226H857.639V22.02H859.237ZM859.237 37.1H857.639V38.6974H859.237V37.1ZM891.737 37.1H893.334V35.5026H891.737V37.1ZM891.737 56.86V58.4574H893.334V56.86H891.737ZM857.639 56.86V72.98H860.834V56.86H857.639ZM859.237 74.5774H895.637V71.3826H859.237V74.5774ZM894.039 72.98V93H897.234V72.98H894.039ZM895.637 91.4026H838.437V94.5974H895.637V91.4026ZM840.034 93V1.99999H836.839V93H840.034ZM838.437 3.59744H894.987V0.402552H838.437V3.59744ZM893.389 1.99999V22.02H896.584V1.99999H893.389ZM894.987 20.4226H859.237V23.6174H894.987V20.4226ZM857.639 22.02V37.1H860.834V22.02H857.639ZM859.237 38.6974H891.737V35.5026H859.237V38.6974ZM890.139 37.1V56.86H893.334V37.1H890.139ZM891.737 55.2626H859.237V58.4574H891.737V55.2626ZM955.732 93V94.5974H956.892L957.251 93.4947L955.732 93ZM929.212 93L927.693 93.4947L928.053 94.5974H929.212V93ZM899.572 1.99999V0.402552H897.372L898.053 2.49472L899.572 1.99999ZM922.322 1.99999L923.852 1.53961L923.51 0.402552H922.322V1.99999ZM942.472 68.95L940.943 69.4104L942.472 74.4928L944.002 69.4104L942.472 68.95ZM962.622 1.99999V0.402552H961.435L961.093 1.53961L962.622 1.99999ZM985.372 1.99999L986.891 2.49472L987.573 0.402552H985.372V1.99999ZM955.732 91.4026H929.212V94.5974H955.732V91.4026ZM930.731 92.5053L901.091 1.50527L898.053 2.49472L927.693 93.4947L930.731 92.5053ZM899.572 3.59744H922.322V0.402552H899.572V3.59744ZM920.793 2.46038L940.943 69.4104L944.002 68.4896L923.852 1.53961L920.793 2.46038ZM944.002 69.4104L964.152 2.46038L961.093 1.53961L940.943 68.4896L944.002 69.4104ZM962.622 3.59744H985.372V0.402552H962.622V3.59744ZM983.853 1.50527L954.213 92.5053L957.251 93.4947L986.891 2.49472L983.853 1.50527ZM1013.99 56.86V55.2626H1012.4V56.86H1013.99ZM1013.99 72.98H1012.4V74.5774H1013.99V72.98ZM1050.39 72.98H1051.99V71.3826H1050.39V72.98ZM1050.39 93V94.5974H1051.99V93H1050.39ZM993.193 93H991.595V94.5974H993.193V93ZM993.193 1.99999V0.402552H991.595V1.99999H993.193ZM1049.74 1.99999H1051.34V0.402552H1049.74V1.99999ZM1049.74 22.02V23.6174H1051.34V22.02H1049.74ZM1013.99 22.02V20.4226H1012.4V22.02H1013.99ZM1013.99 37.1H1012.4V38.6974H1013.99V37.1ZM1046.49 37.1H1048.09V35.5026H1046.49V37.1ZM1046.49 56.86V58.4574H1048.09V56.86H1046.49ZM1012.4 56.86V72.98H1015.59V56.86H1012.4ZM1013.99 74.5774H1050.39V71.3826H1013.99V74.5774ZM1048.8 72.98V93H1051.99V72.98H1048.8ZM1050.39 91.4026H993.193V94.5974H1050.39V91.4026ZM994.79 93V1.99999H991.595V93H994.79ZM993.193 3.59744H1049.74V0.402552H993.193V3.59744ZM1048.15 1.99999V22.02H1051.34V1.99999H1048.15ZM1049.74 20.4226H1013.99V23.6174H1049.74V20.4226ZM1012.4 22.02V37.1H1015.59V22.02H1012.4ZM1013.99 38.6974H1046.49V35.5026H1013.99V38.6974ZM1044.9 37.1V56.86H1048.09V37.1H1044.9ZM1046.49 55.2626H1013.99V58.4574H1046.49V55.2626ZM1082.93 1.99999H1084.53V0.402552H1082.93V1.99999ZM1082.93 72.98H1081.33V74.5774H1082.93V72.98ZM1115.43 72.98H1117.03V71.3826H1115.43V72.98ZM1115.43 93V94.5974H1117.03V93H1115.43ZM1062.13 93H1060.53V94.5974H1062.13V93ZM1062.13 1.99999V0.402552H1060.53V1.99999H1062.13ZM1081.33 1.99999V72.98H1084.53V1.99999H1081.33ZM1082.93 74.5774H1115.43V71.3826H1082.93V74.5774ZM1113.83 72.98V93H1117.03V72.98H1113.83ZM1115.43 91.4026H1062.13V94.5974H1115.43V91.4026ZM1063.73 93V1.99999H1060.53V93H1063.73ZM1062.13 3.59744H1082.93V0.402552H1062.13V3.59744ZM1196.34 81.17L1195.22 80.0351L1196.34 81.17ZM1129.26 81.17L1130.39 80.0351L1129.26 81.17ZM1143.82 67L1142.69 68.1296L1143.82 67ZM1181.65 67L1180.52 65.8704L1181.65 67ZM1181.65 28L1180.52 29.1296L1181.65 28ZM1143.82 28L1144.95 29.1296L1143.82 28ZM1195.22 80.0351C1186.34 88.8326 1175.57 93.2226 1162.8 93.2226V96.4174C1176.39 96.4174 1187.98 91.7074 1197.47 82.3049L1195.22 80.0351ZM1162.8 93.2226C1150.04 93.2226 1139.27 88.8326 1130.39 80.0351L1128.14 82.3049C1137.63 91.7074 1149.22 96.4174 1162.8 96.4174V93.2226ZM1130.39 80.0351C1121.52 71.2457 1117.08 60.4357 1117.08 47.5H1113.89C1113.89 61.2576 1118.64 72.8943 1128.14 82.3049L1130.39 80.0351ZM1117.08 47.5C1117.08 34.5643 1121.52 23.7543 1130.39 14.9649L1128.14 12.6951C1118.64 22.1057 1113.89 33.7424 1113.89 47.5H1117.08ZM1130.39 14.9649C1139.27 6.16738 1150.04 1.77744 1162.8 1.77744V-1.41745C1149.22 -1.41745 1137.63 3.29261 1128.14 12.6951L1130.39 14.9649ZM1162.8 1.77744C1175.57 1.77744 1186.34 6.16738 1195.22 14.9649L1197.47 12.6951C1187.98 3.29261 1176.39 -1.41745 1162.8 -1.41745V1.77744ZM1195.22 14.9649C1204.09 23.7543 1208.53 34.5643 1208.53 47.5H1211.72C1211.72 33.7424 1206.97 22.1057 1197.47 12.6951L1195.22 14.9649ZM1208.53 47.5C1208.53 60.4357 1204.09 71.2457 1195.22 80.0351L1197.47 82.3049C1206.97 72.8943 1211.72 61.2576 1211.72 47.5H1208.53ZM1134.69 47.5C1134.69 55.8407 1137.33 62.7657 1142.69 68.1296L1144.95 65.8704C1140.26 61.1809 1137.88 55.106 1137.88 47.5H1134.69ZM1142.69 68.1296C1148.04 73.4791 1154.79 76.1374 1162.8 76.1374V72.9426C1155.57 72.9426 1149.66 70.5742 1144.95 65.8704L1142.69 68.1296ZM1162.8 76.1374C1170.74 76.1374 1177.44 73.4754 1182.78 68.1296L1180.52 65.8704C1175.82 70.5779 1169.95 72.9426 1162.8 72.9426V76.1374ZM1182.78 68.1296C1188.23 62.688 1190.92 55.7681 1190.92 47.5H1187.73C1187.73 55.0053 1185.31 61.0853 1180.52 65.8704L1182.78 68.1296ZM1190.92 47.5C1190.92 39.2319 1188.23 32.312 1182.78 26.8704L1180.52 29.1296C1185.31 33.9147 1187.73 39.9947 1187.73 47.5H1190.92ZM1182.78 26.8704C1177.44 21.5246 1170.74 18.8626 1162.8 18.8626V22.0574C1169.95 22.0574 1175.82 24.4221 1180.52 29.1296L1182.78 26.8704ZM1162.8 18.8626C1154.79 18.8626 1148.04 21.5209 1142.69 26.8704L1144.95 29.1296C1149.66 24.4258 1155.57 22.0574 1162.8 22.0574V18.8626ZM1142.69 26.8704C1137.33 32.2343 1134.69 39.1593 1134.69 47.5H1137.88C1137.88 39.894 1140.26 33.8191 1144.95 29.1296L1142.69 26.8704ZM1221.84 1.99999V0.402552H1220.24V1.99999H1221.84ZM1278.91 11.1L1280.03 9.97043L1278.91 11.1ZM1278.91 55.3L1277.78 54.1704L1278.91 55.3ZM1242.64 64.4V62.8026H1241.04V64.4H1242.64ZM1242.64 93V94.5974H1244.23V93H1242.64ZM1221.84 93H1220.24V94.5974H1221.84V93ZM1242.64 44.9H1241.04V46.4974H1242.64V44.9ZM1264.22 41.52L1263.04 40.4365L1264.22 41.52ZM1264.22 24.88L1265.39 23.7965V23.7965L1264.22 24.88ZM1242.64 21.5V19.9026H1241.04V21.5H1242.64ZM1221.84 3.59744H1256.29V0.402552H1221.84V3.59744ZM1256.29 3.59744C1264.9 3.59744 1272.02 6.47891 1277.78 12.2296L1280.03 9.97043C1273.65 3.58774 1265.7 0.402552 1256.29 0.402552V3.59744ZM1277.78 12.2296C1283.63 18.0881 1286.54 25.0504 1286.54 33.2H1289.73C1289.73 24.1896 1286.48 16.4186 1280.03 9.97043L1277.78 12.2296ZM1286.54 33.2C1286.54 41.3496 1283.63 48.3119 1277.78 54.1704L1280.03 56.4296C1286.48 49.9814 1289.73 42.2104 1289.73 33.2H1286.54ZM1277.78 54.1704C1272.02 59.9211 1264.9 62.8026 1256.29 62.8026V65.9974C1265.7 65.9974 1273.65 62.8122 1280.03 56.4296L1277.78 54.1704ZM1256.29 62.8026H1242.64V65.9974H1256.29V62.8026ZM1241.04 64.4V93H1244.23V64.4H1241.04ZM1242.64 91.4026H1221.84V94.5974H1242.64V91.4026ZM1223.43 93V1.99999H1220.24V93H1223.43ZM1242.64 46.4974H1256.29V43.3026H1242.64V46.4974ZM1256.29 46.4974C1259.91 46.4974 1262.99 45.201 1265.39 42.6035L1263.04 40.4365C1261.28 42.3457 1259.07 43.3026 1256.29 43.3026V46.4974ZM1265.39 42.6035C1267.76 40.0321 1268.93 36.8625 1268.93 33.2H1265.74C1265.74 36.1242 1264.83 38.5012 1263.04 40.4365L1265.39 42.6035ZM1268.93 33.2C1268.93 29.5375 1267.76 26.3679 1265.39 23.7965L1263.04 25.9635C1264.83 27.8988 1265.74 30.2758 1265.74 33.2H1268.93ZM1265.39 23.7965C1262.99 21.199 1259.91 19.9026 1256.29 19.9026V23.0974C1259.07 23.0974 1261.28 24.0543 1263.04 25.9635L1265.39 23.7965ZM1256.29 19.9026H1242.64V23.0974H1256.29V19.9026ZM1241.04 21.5V44.9H1244.23V21.5H1241.04ZM1319.31 56.86V55.2626H1317.72V56.86H1319.31ZM1319.31 72.98H1317.72V74.5774H1319.31V72.98ZM1355.71 72.98H1357.31V71.3826H1355.71V72.98ZM1355.71 93V94.5974H1357.31V93H1355.71ZM1298.51 93H1296.92V94.5974H1298.51V93ZM1298.51 1.99999V0.402552H1296.92V1.99999H1298.51ZM1355.06 1.99999H1356.66V0.402552H1355.06V1.99999ZM1355.06 22.02V23.6174H1356.66V22.02H1355.06ZM1319.31 22.02V20.4226H1317.72V22.02H1319.31ZM1319.31 37.1H1317.72V38.6974H1319.31V37.1ZM1351.81 37.1H1353.41V35.5026H1351.81V37.1ZM1351.81 56.86V58.4574H1353.41V56.86H1351.81ZM1317.72 56.86V72.98H1320.91V56.86H1317.72ZM1319.31 74.5774H1355.71V71.3826H1319.31V74.5774ZM1354.12 72.98V93H1357.31V72.98H1354.12ZM1355.71 91.4026H1298.51V94.5974H1355.71V91.4026ZM1300.11 93V1.99999H1296.92V93H1300.11ZM1298.51 3.59744H1355.06V0.402552H1298.51V3.59744ZM1353.47 1.99999V22.02H1356.66V1.99999H1353.47ZM1355.06 20.4226H1319.31V23.6174H1355.06V20.4226ZM1317.72 22.02V37.1H1320.91V22.02H1317.72ZM1319.31 38.6974H1351.81V35.5026H1319.31V38.6974ZM1350.22 37.1V56.86H1353.41V37.1H1350.22ZM1351.81 55.2626H1319.31V58.4574H1351.81V55.2626ZM1437.65 93V94.5974H1440.42L1439.03 92.1988L1437.65 93ZM1415.29 93L1413.9 93.7952L1414.37 94.5974H1415.29V93ZM1398.13 63.1L1399.52 62.3049L1399.06 61.5026H1398.13V63.1ZM1388.25 63.1V61.5026H1386.65V63.1H1388.25ZM1388.25 93V94.5974H1389.85V93H1388.25ZM1367.45 93H1365.85V94.5974H1367.45V93ZM1367.45 1.99999V0.402552H1365.85V1.99999H1367.45ZM1425.95 11.1L1427.08 9.97043V9.97043L1425.95 11.1ZM1430.37 48.54L1429.03 47.6651L1429.03 47.6737L1429.02 47.6824L1430.37 48.54ZM1418.28 59.59L1417.55 58.1711L1416.06 58.9412L1416.9 60.3912L1418.28 59.59ZM1388.25 21.5V19.9026H1386.65V21.5H1388.25ZM1388.25 44.9H1386.65V46.4974H1388.25V44.9ZM1411.13 41.52L1409.96 40.4365L1409.95 40.4489L1409.93 40.4616L1411.13 41.52ZM1411.13 24.88L1409.93 25.9384L1409.95 25.9511L1409.96 25.9635L1411.13 24.88ZM1437.65 91.4026H1415.29V94.5974H1437.65V91.4026ZM1416.68 92.2048L1399.52 62.3049L1396.74 63.8951L1413.9 93.7952L1416.68 92.2048ZM1398.13 61.5026H1388.25V64.6974H1398.13V61.5026ZM1386.65 63.1V93H1389.85V63.1H1386.65ZM1388.25 91.4026H1367.45V94.5974H1388.25V91.4026ZM1369.05 93V1.99999H1365.85V93H1369.05ZM1367.45 3.59744H1403.85V0.402552H1367.45V3.59744ZM1403.85 3.59744C1412.1 3.59744 1419.06 6.46587 1424.82 12.2296L1427.08 9.97043C1420.71 3.60078 1412.94 0.402552 1403.85 0.402552V3.59744ZM1424.82 12.2296C1430.58 17.9932 1433.45 24.9522 1433.45 33.2H1436.65C1436.65 24.1145 1433.45 16.3401 1427.08 9.97043L1424.82 12.2296ZM1433.45 33.2C1433.45 38.3353 1431.99 43.1466 1429.03 47.6651L1431.71 49.4149C1434.99 44.4001 1436.65 38.9847 1436.65 33.2H1433.45ZM1429.02 47.6824C1426.14 52.2106 1422.32 55.7005 1417.55 58.1711L1419.01 61.0089C1424.29 58.2795 1428.53 54.4027 1431.72 49.3976L1429.02 47.6824ZM1416.9 60.3912L1436.27 93.8012L1439.03 92.1988L1419.66 58.7888L1416.9 60.3912ZM1403.85 19.9026H1388.25V23.0974H1403.85V19.9026ZM1386.65 21.5V44.9H1389.85V21.5H1386.65ZM1388.25 46.4974H1403.85V43.3026H1388.25V46.4974ZM1403.85 46.4974C1407.19 46.4974 1410.05 45.1543 1412.33 42.5784L1409.93 40.4616C1408.23 42.3923 1406.23 43.3026 1403.85 43.3026V46.4974ZM1412.3 42.6035C1414.68 40.0321 1415.85 36.8625 1415.85 33.2H1412.65C1412.65 36.1242 1411.74 38.5012 1409.96 40.4365L1412.3 42.6035ZM1415.85 33.2C1415.85 29.5375 1414.68 26.3679 1412.3 23.7965L1409.96 25.9635C1411.74 27.8988 1412.65 30.2758 1412.65 33.2H1415.85ZM1412.33 23.8216C1410.05 21.2457 1407.19 19.9026 1403.85 19.9026V23.0974C1406.23 23.0974 1408.23 24.0077 1409.93 25.9384L1412.33 23.8216Z" fill="white" fill-opacity="0.05" mask="url(#path-1-outside-1_2_96)"/>
</svg>
